# xmcd CD database file
#
# Track frame offsets:
#	200
#	13230
#	25512
#	38155
#	49587
#	60270
#	70825
#	81195
#	91475
#	103505
#	115772
#	128615
#	138972
#	153080
#
# Disc length: 2208 seconds
#
# Revision: 0
# Processed by: cddbd v1.5.1PL0 Copyright (c) Steve Scherf et al.
# Submitted via: CDex 1.51
#
DISCID=a2089e0e
DTITLE=Jimmy Reed - Nightime Blues
DYEAR=1900
DGENRE=Blues
TTITLE0=Shame, Shame, Shame
TTITLE1=Bright Lights, Big City
TTITLE2=Big Boss Man
TTITLE3=Hush, Hush
TTITLE4=Baby, What You Want My To Do
TTITLE5=Take Out Some Insurance
TTITLE6=Going To New York
TTITLE7=I Wanna Be Loved
TTITLE8=I'm Gonna Get My Baby
TTITLE9=Honest I Do
TTITLE10=You Got Me Dizzy
TTITLE11=Ain't That Loving You Baby
TTITLE12=Your Don't Have To Go
TTITLE13=I Found My Baby
EXTD=
EXTT0=
EXTT1=
EXTT2=
EXTT3=
EXTT4=
EXTT5=
EXTT6=
EXTT7=
EXTT8=
EXTT9=
EXTT10=
EXTT11=
EXTT12=
EXTT13=
PLAYORDER=
